Format                           : AVI
Format/Info                      : Audio Video Interleave
File size                        : 1.19 GiB
Duration                         : 1h 45mn
Overall bit rate                 : 1 616 Kbps
Writing library                  : VirtualDub build 32839/release

Video
ID                               : 0
Format                           : MPEG-4 Visual
Format profile                   : Advanced Simple@L5
Format settings, BVOP            : Yes
Format settings, QPel            : No
Format settings, GMC             : No warppoints
Format settings, Matrix          : Custom
Codec ID                         : XVID
Codec ID/Hint                    : XviD
Duration                         : 1h 45mn
Bit rate                         : 1 477 Kbps
Width                            : 622 pixels
Height                           : 358 pixels
Display aspect ratio             : 16:9
Frame rate                       : 29.970 fps
Color space                      : YUV
Chroma subsampling               : 4:2:0
Bit depth                        : 8 bits
Scan type                        : Progressive
Bits/(Pixel*Frame)               : 0.221
Stream size                      : 1.08 GiB (91%)
Writing library                  : XviD 1.2.1 (UTC 2008-12-04)

Audio
ID                               : 1
Format                           : MPEG Audio
Format version                   : Version 1
Format profile                   : Layer 3
Codec ID                         : 55
Codec ID/Hint                    : MP3
Duration                         : 1h 45mn
Bit rate mode                    : Constant
Bit rate                         : 128 Kbps
Channel(s)                       : 2 channels
Sampling rate                    : 44.1 KHz
Stream size                      : 96.3 MiB (8%)
Alignment                        : Split accross interleaves
Interleave, duration             : 33 ms (1.00 video frame)
Interleave, preload duration     : 500 ms



 
http://www.imdb.com/title/tt1787759/





Users: 2.8/10 (263 votes) 1 review | Critics: 1 reviews Metascore: 45/100 (based on 7 reviews from Metacritic.com)

Madea jumps into action when her niece, Shirley, receives distressing news about her health. All Shirley wants is to gather her three adult children around her and share the news as a family... See full summary »
Director:
Tyler Perry
Writer:
Tyler Perry (screenplay)
Stars:
Tyler Perry, Loretta Devine and Bow Wow 







 
http://img585.imageshack.us/img585/6171/vlcsnap2011042606h30m35.png
 
http://img40.imageshack.us/img40/87/vlcsnap2011042606h32m32.png
 
http://img14.imageshack.us/img14/3174/vlcsnap2011042606h28m34.png



Source Used LKRG  ...................... Thanks 

Deinterlaced ,rgb colours ,levels filter and slight denoise..............

Enjoy !



Greetz to Imagine ,Flawl3ss,DiLLoN,BDK,NOiR,TOXiCiNK,THC,Ez,Rx,Boobyblue,LKRG 



